<?xml version="1.0" encoding="utf-8"?>

<svg version="1.1" id="Layer_1" xmlns="http://www.w3.org/2000/svg" xmlns:xlink="http://www.w3.org/1999/xlink" x="0px" y="0px"
	 viewBox="0 0 2569.679 5000" enable-background="new 0 0 2569.679 5000" xml:space="preserve">
<g>
	<path d="M1748.947,2570.232c279.995-64.627,289.938-424.13,289.938-424.13C1844.968,2429.972,1591.299,2606.62,1748.947,2570.232z"
		/>
	<path d="M875.608,2570.232c157.648,36.388-96.015-140.26-289.938-424.13C585.67,2146.102,595.613,2505.606,875.608,2570.232z"/>
	<path d="M1183.718,4884.646c88.098-33.033,183.533-168.854,238.592-359.724c69.743-275.302-69.743-480.862-69.743-480.862
		C1492.064,4671.75,1095.625,4917.686,1183.718,4884.646z"/>
	<path d="M2549.91,1119.388c-19.441-119.702-61.918-263.263-133.085-407.023c89.27-31.646,152.854-111.828,152.854-205.554
		c0-197.255-259.033-293.872-406.953-153.762C1961.397,150.344,1673.147,0,1273.982,0C924.717,0,625.417,120.492,402.916,349.324
		C253.739,214.589,0,311.545,0,506.811c0,94.768,64.971,175.723,155.799,206.628C70.146,899.623,44.337,1062.215,37.221,1123.81
		c-4.907,42.655-13.501,54.226-4.923,116.52c29.164,232.879,184.753,439.164,377.257,599.865
		c-90.082,169.21-55.549,389.28,25.288,561.703c-141.438,323.81-212.127,773.728,1.338,1070.084
		c0.269,207.542,82.675,318.043,168.887,352.92c85.018,34.409,196.347-0.736,276.608-60.999
		c36.656,10.819,81.546,22.37,123.566,29.427c-0.124,146.436,31.136,244.913,75.081,360.805
		c99.299,261.94,161.771,437.82,21.671,622.472C1003.963,4905.795,919.751,5000,1080.64,5000c12.985,0,28.325-0.408,48.298-1.274
		c188.741-8.202,474.917-258.093,471.181-550.524c-3.273-254.448-84.707-423.63-24.407-641.288
		c50.34-7.863,98.407-18.463,144.13-31.813c59.101,40.333,124.83,63.046,186.962,63.046
		c169.107-0.049,239.904-182.394,242.882-353.662c72.415-102.052,117.773-224.543,133.128-362.691
		c29.803-268.181-34.909-507.246-93.661-718.696c82.637-175.552,117.16-400.25,21.736-570.545
		c238.673-211.084,340.826-444.711,349.415-615.113C2564.073,1179.563,2555.339,1152.706,2549.91,1119.388z M2537.585,506.806
		c0,81.181-56.521,150.489-135.423,176.707c-3.73-7.143-7.546-14.286-11.421-21.424c40.252-24.009,67.652-64.062,75.269-110.345
		c23.665-143.717-143.529-240.205-256.232-148.769c-8.073-9.067-16.361-18.022-24.757-26.923
		C2312.489,255.787,2537.585,337.527,2537.585,506.806z M2379.077,641.057c-42.622-75.494-93.484-149.94-153.472-219.899
		c96.768-77.478,236.577,6.304,216.755,126.711C2436.169,585.401,2414.352,619.731,2379.077,641.057z M32.082,506.806
		c0-166.178,219.491-250.105,348.803-134.214c-8.299,9.014-16.479,18.194-24.552,27.519
		c-34.694-26.546-78.698-37.656-122.024-30.523C87.856,393.699,52.56,588.423,180.303,662.928
		c-3.623,7.106-7.181,14.195-10.626,21.257C89.646,658.52,32.082,588.723,32.082,506.806z M340.665,418.568
		c-61.047,73.441-109.995,149.247-149.226,223.049C83.524,577.49,115.133,413.516,238.2,393.258
		C272.609,387.555,309.437,395.123,340.665,418.568z M435.02,1861.034c101.535,81.342,216.035,153.3,331.362,210.095l3.177,1.086
		c0.892,0.199,1.93,0.516,2.397,0.623c50.168,24.461,103.175,47.481,157.621,67.744c-19.586,9.691-37.941,20.365-55.285,31.846
		c-13.507-20.037-20.349-32.55-20.542-32.916c-10.019-18.57-38.333-3.504-28.245,15.222c2.526,4.687,63.229,115.956,189.306,215.954
		c37.57,29.798,63.595,75.752,74.027,123.696c-27.094-16.387-55.769-28.347-87.039-35.952c-15.415-3.816-21.101,19.543-5.681,23.289
		c35.097,8.535,67.593,23.316,97.257,44.251c2.489,35.14-3.402,69.603-21.693,99.885c-94.139-53.087-90.361-52.63-97.106-50.7
		c-10.18,2.849-11.9,16.742-2.628,21.978c13.308,7.503-1.182-0.667,85.502,48.217c-20.655,23.611-49.502,40.569-85.712,50.265
		c-27.051-10.008-48.4-17.968-75.602-43.347c-11.572-10.835-27.82,6.831-16.345,17.522c15.055,14.044,30.943,24.928,47.803,33.63
		C531.185,2743.629,279.623,2164.678,435.02,1861.034z M1512.252,2616.149c59.44,150.704,286.632,146.039,427.194,69.529
		c-21.451,126.791-76.919,238.85-156.767,328.679c-90.673-69.98-185.038-52.517-205.145,76.021
		c-82.804-70.926-140.513,10.142-144.039,121.728c-91.533,16.232-187.166,11.669-282.177-18.446
		c-12.437-129.495-80.396-156.858-142.954-103.282c-16.683-106.668-83.272-135.714-155.756-105.394
		c-66.067-83.868-109.168-181.921-128.737-280.629c178.857,75.575,407.506,29.228,401.567-169.843
		c-2.118-70.883-35.479-145.173-90.689-188.962c-67.282-53.361-115.51-110.764-145.195-151.397
		c23.461-15.42,48.561-29.099,75.269-40.956c239.254,82.772,430.354,90.668,711.349-7.987c24.434,9.857,47.696,21.075,69.647,33.71
		c-28.056,40.569-79.848,106.211-156.02,166.629C1510.951,2408.086,1478.498,2530.604,1512.252,2616.149z M437.917,3416.838
		c-172.015-277.802-108.34-675.02,15.823-977.251c55.049,102.836,133.139,193.782,234.454,247.778
		c18.258,111.57,63.573,219.657,135.531,312.673c-14.076,8.815-26.39,18.597-36.156,27.271
		c-14.222-37.28-44.794-92.392-99.375-86.357C602.783,2950.773,457.024,3117.693,437.917,3416.838z M617.107,3795.154
		c-89.302-36.135-173.584-167.774-142.357-428.876c29.443-246.327,159.25-393.704,221.372-393.704
		c46.132,0,68.367,87.238,68.588,88.115l7.31,29.588l20.258-22.779c0.699-0.779,69.276-76.94,131.387-58.655
		c54.925,16.221,55.774,116.456,55.774,117.471l0.086,43.401c21.994-25.772,58.741-76.231,90.356-73.301
		c51.77,5.154,113.886,195.949-108.27,535.491C864.439,3780.41,704.399,3830.52,617.107,3795.154z M1568.026,4448.621
		c3.483,270.76-265.375,510.439-440.481,518.043c-24.31,1.075-98.37,4.285-104.771-7.955
		c-9.54-18.193,85.825-137.739,114.515-175.552c155.267-204.764,50.115-434.504-45.804-690.242
		c-41.338-110.253-53.452-212.927-53.839-294.297c163.958,25.272,336.86,34.727,503.344,13.319
		C1485.33,4029.844,1564.877,4201.956,1568.026,4448.621z M911.705,3739.154c112.688-101.449,236.829-364.782,240.807-511.444
		c88.432,26.24,184.791,33.356,281.731,16.973c11.163,139.245,127.571,401.61,253.212,506.005
		C1440.654,3816.551,1112.319,3794.546,911.705,3739.154z M1968.798,3795.154c-70.818,28.659-201.189,1.886-302.01-108.458
		c-82.476-90.173-210.875-342.39-201.033-481.506c2.58-36.425,16.415-108.899,52.947-108.899c30.948,0,65.669,47.599,87.765,73.495
		l0.005-43.498c0-1.01,0.763-101.197,55.78-117.444c61.627-18.248,130.699,57.902,131.392,58.677l20.258,22.693l7.299-29.524
		c0.236-0.935,24.101-93.365,72.839-87.867c50.749,5.843,185.307,127.355,217.115,393.473
		C2142.393,3627.38,2058.1,3759.024,1968.798,3795.154z M2148.59,3427.819c-15.71-304.326-175.095-504.279-271.787-486.112
		c52.13-84.132,85.62-178.589,98.461-277.63c81.466-54.237,145.415-132.585,192.364-218.437
		C2255.301,2763.72,2326.523,3136.408,2148.59,3427.819z M2235.2,2027.464c19.548,286.804-187.505,711.542-538.28,675.977
		c16.872-8.686,32.792-19.591,47.836-33.652c11.599-10.814-4.767-28.347-16.345-17.511c-28.159,26.25-51.55,34.436-75.639,43.358
		c-36.189-9.707-65.03-26.659-85.674-50.281c85.943-48.459,72.624-40.956,85.524-48.223c9.255-5.23,7.552-19.161-2.682-21.983
		c-6.729-1.925-1.672-3.085-97.069,50.706c-18.446-30.556-24.138-65.137-21.677-99.89c29.572-20.86,62.025-35.684,97.257-44.251
		c15.415-3.746,9.583-26.976-5.665-23.289c-31.846,7.74-60.531,19.903-87.055,35.947c10.432-47.938,36.457-93.892,74.022-123.69
		c126.071-99.993,186.78-211.267,189.3-215.948c10.105-18.763-18.226-33.786-28.255-15.21c-0.14,0.253-3.596,6.568-10.314,17.226
		c-15.324-8.863-31.416-17.113-48.292-24.724c165.78-62.96,333.802-159.658,473.729-277.893
		C2209.476,1897.921,2228.798,1954.431,2235.2,2027.464z M1250.892,2183.812c-208.037-8.363-458.561-138.724-472.289-142.405
		c-324.944-160.427-687.366-465.425-717.035-829.283c193.278,141.717,620.633,409,838.887,306.342
		c61.885-29.12,121.873-53.581,181.878-71.679c33.34,72.705,115.537,100.508,192.772,100.788v111.339
		c-29.448,19.059-140.744,84.261-240.253,52.055c-106.921-34.581-77.714-140.47-76.424-144.942
		c6.692-22.816-28.094-33.367-34.904-10.255c-0.425,1.44-40.956,144.185,100.127,189.817
		c88.115,28.502,191.891-4.902,269.637-55.038c78.515,50.722,181.437,83.513,269.637,55.038
		c141.088-45.632,100.552-188.381,100.127-189.805c-6.74-23.074-41.676-12.868-34.904,10.244
		c1.317,4.482,31.002,110.2-76.424,144.942c-99.047,32.055-210.714-33.06-240.253-52.081v-112.086
		c85.938,5.558,179.153-21.182,215.492-99.159c54.834,16.84,112.349,40.091,173.477,70.646
		c253.733,126.867,614.011-107.662,827.186-295.178C2473.179,1771.855,1715.984,2217.625,1250.892,2183.812z M1099.199,1378.834
		c-3.316-79.999,83.127-185.387,136.557-244.257c36.721-39.741,100.729-40.596,138.288,0.135
		c53.705,58.274,139.755,164.877,136.482,244.123c-4.343,105.551-97.692,142.389-205.994,135.375
		C1199.063,1523.298,1103.499,1483.438,1099.199,1378.834z M1714.817,1489.603c-62.428-31.217-121.223-55.086-177.293-72.474
		c2.741-11.459,4.515-23.73,5.052-36.962c3.666-88.62-84.379-201.883-145.039-267.294c-49.679-53.861-135.611-53.898-185.355-0.059
		c-74.301,80.595-165.119,196.761-140.223,303.423c-61.09,18.624-122.191,43.563-185.167,73.205
		c-209.832,98.778-665.502-194.567-823.37-315.919c-0.344-0.269-0.726-0.441-1.086-0.672
		C148.78,509.934,591.098,32.11,1273.971,32.11c810.895,0,1152.668,636.644,1235.751,1046.134
		c3.542,17.446,17.146,92.774,18.199,101.578C2440.151,1260.153,2006.33,1635.346,1714.817,1489.603z"/>
	<path d="M379.724,983.921c-76.01,159.363-13.346,353.296,143.147,430.661c236.421,116.875,506.182-102.664,445.167-368.421
		C900.751,753.122,510.154,710.446,379.724,983.921z M919.858,1250.806c-70.2,147.189-242.597,209.418-385.056,138.992
		c-142.454-70.421-201.028-246.821-130.828-394.01C474.18,848.6,646.571,786.37,789.025,856.796
		C931.484,927.222,990.064,1103.623,919.858,1250.806z"/>
	<path d="M787.665,1079.496c-43.154-21.327-39.817-83.035,4.488-97.601c-48.921-32.2-108.238-39.295-162.964-20.344
		c-161.464,55.914-177.771,285.789-25.176,361.224c160.513,79.343,336.811-97.133,253.975-265.854
		C845.116,1082.667,813.765,1092.401,787.665,1079.496z M751.633,1161.617c-8.197,17.178-29.045,24.074-46.573,15.415
		c-17.533-8.665-25.1-29.615-16.904-46.793s29.045-24.074,46.573-15.415C752.261,1123.494,759.829,1144.445,751.633,1161.617z"/>
	<path d="M1641.978,983.921c-76.021,159.368-13.351,353.302,143.136,430.661c236.641,116.961,506.134-102.943,445.167-368.431
		C2163.011,753.143,1772.419,710.414,1641.978,983.921z M2182.113,1250.806c-70.2,147.189-242.597,209.418-385.056,138.992
		c-142.453-70.421-201.028-246.821-130.828-394.01s242.597-209.418,385.05-138.992
		C2193.744,927.222,2252.313,1103.623,2182.113,1250.806z"/>
	<path d="M2049.925,1079.496c-43.138-21.322-39.822-83.062,4.493-97.601c-48.884-32.19-108.227-39.29-162.969-20.339
		c-161.491,55.92-177.739,285.794-25.159,361.219c160.76,79.467,336.596-97.542,253.975-265.859
		C2107.403,1082.608,2076.079,1092.433,2049.925,1079.496z M2013.892,1161.617c-8.197,17.178-29.045,24.074-46.573,15.415
		c-17.527-8.659-25.1-29.615-16.904-46.793c8.197-17.178,29.045-24.074,46.573-15.415
		C2014.516,1123.494,2022.089,1144.445,2013.892,1161.617z"/>
</g>
</svg>
